<svg id="Lag_1" data-name="Lag 1" xmlns="http://www.w3.org/2000/svg" viewBox="0 0 946.34 946.34"><path class="cls-1" d="M261.06,438.55l-23.12-147L166.05,164.79A474.81,474.81,0,0,0,77.91,286Z" transform="translate(-26.83 -26.83)"/><path class="cls-1" d="M179.52,151.9,230,240.85,211.72,124.76Q195,137.62,179.52,151.9Z" transform="translate(-26.83 -26.83)"/><polygon class="cls-1" points="348.58 507 236.42 309.29 255.28 429.26 348.58 507"/><path class="cls-1" d="M265.32,465.62,69.81,302.71A471.4,471.4,0,0,0,26.83,500a478.37,478.37,0,0,0,2.87,52.32L293.36,644Z" transform="translate(-26.83 -26.83)"/><path class="cls-1" d="M255.28,285.45,414.82,566.66,661,771.8l175.37,61A471.68,471.68,0,0,0,973.17,500C973.17,238.68,761.32,26.83,500,26.83A471,471,0,0,0,228.12,112.7Z" transform="translate(-26.83 -26.83)"/><path class="cls-1" d="M486.93,730.41,315.89,671,360.1,952.14a476.16,476.16,0,0,0,256.36,6.58Z" transform="translate(-26.83 -26.83)"/><path class="cls-1" d="M700.41,804.63l86.24,71.85q18.32-14,35.2-29.64Z" transform="translate(-26.83 -26.83)"/><path class="cls-1" d="M296.54,664.22,32.33,572.37C59,745.78,179.71,888.17,340.8,945.71Z" transform="translate(-26.83 -26.83)"/><path class="cls-1" d="M771.62,887.48,652,787.79,512.82,739.41,634.44,953.79A471.16,471.16,0,0,0,771.62,887.48Z" transform="translate(-26.83 -26.83)"/><polygon class="cls-1" points="585.74 728.12 413.29 584.44 472.46 688.74 585.74 728.12"/><polygon class="cls-1" points="446.58 679.74 373.88 551.6 259.53 456.32 285.88 623.88 446.58 679.74"/></svg>